<svg width="20" height="20" viewBox="0 0 22 22" fill="none" xmlns="http://www.w3.org/2000/svg">
<g clip-path="url(#clip0_30453_2312)">
<path d="M19.7083 3.66675H2.29165C1.0285 3.66675 0 4.69525 0 5.95844V16.0418C0 17.3049 1.0285 18.3334 2.29165 18.3334H19.7083C20.9715 18.3334 22 17.3049 22 16.0418V5.95844C22 4.69525 20.9715 3.66675 19.7083 3.66675ZM21.0833 16.0417C21.0833 16.7998 20.4664 17.4167 19.7083 17.4167H2.29165C1.53355 17.4167 0.916652 16.7998 0.916652 16.0417V5.95844C0.916652 5.20035 1.53355 4.58344 2.29165 4.58344H19.7083C20.4664 4.58344 21.0833 5.20035 21.0833 5.95844V16.0417H21.0833Z" fill="#111111"/>
<path d="M21.5417 6.41675H0.458348C0.205348 6.41675 0 6.6221 0 6.8751V9.6251C0 9.8781 0.205348 10.0834 0.458348 10.0834H21.5417C21.7947 10.0834 22 9.8781 22 9.6251V6.8751C22 6.6221 21.7947 6.41675 21.5417 6.41675ZM21.0833 9.16675H0.916652V7.3334H21.0833V9.16675H21.0833Z" fill="#111111"/>
<path d="M8.70835 12.8333H3.20835C2.95535 12.8333 2.75 13.0386 2.75 13.2916C2.75 13.5446 2.95535 13.7499 3.20835 13.7499H8.70835C8.96135 13.7499 9.1667 13.5446 9.1667 13.2916C9.1667 13.0386 8.96135 12.8333 8.70835 12.8333Z" fill="#111111"/>
<path d="M8.70835 14.6667H3.20835C2.95535 14.6667 2.75 14.8721 2.75 15.1251C2.75 15.3781 2.95535 15.5834 3.20835 15.5834H8.70835C8.96135 15.5834 9.1667 15.3781 9.1667 15.1251C9.16665 14.8721 8.96135 14.6667 8.70835 14.6667Z" fill="#111111"/>
<path d="M17.875 11.9167H16.9583C16.2002 11.9167 15.5833 12.5337 15.5833 13.2917V14.2084C15.5833 14.9665 16.2002 15.5834 16.9583 15.5834H17.875C18.6331 15.5834 19.25 14.9665 19.25 14.2084V13.2917C19.25 12.5337 18.6331 11.9167 17.875 11.9167ZM18.3333 14.2084C18.3333 14.4614 18.128 14.6668 17.875 14.6668H16.9583C16.7053 14.6668 16.5 14.4614 16.5 14.2084V13.2918C16.5 13.0388 16.7053 12.8334 16.9583 12.8334H17.875C18.128 12.8334 18.3333 13.0388 18.3333 13.2918V14.2084Z" fill="#111111"/>
</g>
<defs>
<clipPath id="clip0_30453_2312">
<rect width="22" height="22" fill="white"/>
</clipPath>
</defs>
</svg>
