<svg width="20" height="20" viewBox="0 0 22 22" fill="none" xmlns="http://www.w3.org/2000/svg">
<g clip-path="url(#clip0_30453_2254)">
<path d="M19.1819 11.0755V8.54563C19.1819 7.68778 18.5165 6.99012 17.6758 6.92247L15.3264 2.81884C15.1086 2.43932 14.7571 2.16805 14.3364 2.05542C13.9177 1.94354 13.4799 2.0023 13.1051 2.2204L5.05118 6.90928H3.63665C2.7342 6.90928 2.00031 7.64313 2.00031 8.54563V18.3636C2.00031 19.2661 2.73416 20 3.63665 20H17.5455C18.448 20 19.1819 19.2661 19.1819 18.3636V15.8338C19.657 15.6643 20 15.2145 20 14.6819V12.2274C20 11.6948 19.657 11.2449 19.1819 11.0755ZM16.7251 6.90928H13.1595L15.8337 5.35235L16.7251 6.90928ZM15.4272 4.64235L11.5334 6.90928H9.91831L15.0234 3.93702L15.4272 4.64235ZM13.517 2.92749C13.702 2.81923 13.9181 2.79046 14.1246 2.84561C14.3336 2.90153 14.5078 3.03657 14.616 3.22552L14.6169 3.22702L8.29231 6.90928H6.67729L13.517 2.92749ZM18.3637 18.3636C18.3637 18.8147 17.9965 19.1818 17.5455 19.1818H3.63665C3.18564 19.1818 2.8185 18.8147 2.8185 18.3636V8.54563C2.8185 8.09461 3.18564 7.72747 3.63665 7.72747H17.5455C17.9965 7.72747 18.3637 8.09461 18.3637 8.54563V11.0001H15.9092C14.5557 11.0001 13.4547 12.1011 13.4547 13.4546C13.4547 14.8081 14.5557 15.9091 15.9092 15.9091H18.3637V18.3636ZM19.1819 14.6819C19.1819 14.9076 18.9985 15.091 18.7728 15.091H15.9092C15.0067 15.091 14.2728 14.3571 14.2728 13.4546C14.2728 12.5522 15.0067 11.8183 15.9092 11.8183H18.7728C18.9985 11.8183 19.1819 12.0016 19.1819 12.2274V14.6819Z" fill="#111111"/>
<path d="M15.9088 12.6365C15.4578 12.6365 15.0907 13.0036 15.0907 13.4546C15.0907 13.9056 15.4578 14.2728 15.9088 14.2728C16.3598 14.2728 16.727 13.9056 16.727 13.4546C16.727 13.0036 16.3599 12.6365 15.9088 12.6365Z" fill="#111111"/>
</g>
<defs>
<clipPath id="clip0_30453_2254">
<rect width="18" height="18" fill="white" transform="translate(2 2)"/>
</clipPath>
</defs>
</svg>
